HIERARCHY
ROOT hips
{
	OFFSET -0.003675 0.299928 -0.021708
	CHANNELS 6 Xposition Yposition Zposition Xrotation Yrotation Zrotation
	JOINT LowerBack
	{
		OFFSET 0.000919 0.177588 0.009275
		CHANNELS 3 Xrotation Yrotation Zrotation
		JOINT spine
		{
			OFFSET 0.000919 0.177588 0.009275
			CHANNELS 3 Xrotation Yrotation Zrotation
			JOINT chest
			{
				OFFSET 0.000456 0.100015 0.004638
				CHANNELS 3 Xrotation Yrotation Zrotation
				JOINT neck
				{
					OFFSET 0.000456 0.100015 0.004638
					CHANNELS 3 Xrotation Yrotation Zrotation
					JOINT head
					{
						OFFSET 0.000924 0.155147 0.009274
						CHANNELS 6 Xposition Yposition Zposition Xrotation Yrotation Zrotation
						End Site
						{
							OFFSET 0.000000 0.153400 0.000000
						}
					}
				}
				JOINT shoulder.L
				{
					OFFSET 0.019937 0.078966 0.057518
					CHANNELS 6 Xposition Yposition Zposition Yrotation Xrotation Zrotation
					JOINT upper_arm.L
					{
						OFFSET 0.177024 -0.020465 -0.095062
						CHANNELS 6 Xposition Yposition Zposition Xrotation Yrotation Zrotation
						JOINT forearm.L
						{
							OFFSET 0.247100 -0.135500 -0.061800
							CHANNELS 3 Xrotation Yrotation Zrotation
							JOINT hand.L
							{
								OFFSET 0.217000 -0.143000 0.039300
								CHANNELS 3 Xrotation Yrotation Zrotation
								JOINT palm.01.L
								{
									OFFSET 0.021770 -0.038291 0.012954
									CHANNELS 6 Xposition Yposition Zposition Yrotation Xrotation Zrotation
									JOINT f_index.01.L
									{
										OFFSET 0.053215 -0.044137 0.008236
										CHANNELS 3 Xrotation Yrotation Zrotation
										JOINT f_index.02.L
										{
											OFFSET 0.036108 -0.024723 -0.010656
											CHANNELS 3 Xrotation Yrotation Zrotation
											JOINT f_index.03.L
											{
												OFFSET 0.021342 -0.014948 -0.010846
												CHANNELS 3 Xrotation Yrotation Zrotation
												End Site
												{
													OFFSET 0.015600 -0.009860 -0.013421
												}
											}
										}
									}
									JOINT thumb.01.L
									{
										OFFSET -0.009090 -0.002348 -0.024223
										CHANNELS 6 Xposition Yposition Zposition Xrotation Yrotation Zrotation
										JOINT thumb.02.L
										{
											OFFSET 0.019713 -0.035076 -0.011120
											CHANNELS 3 Xrotation Yrotation Zrotation
											JOINT thumb.03.L
											{
												OFFSET 0.024877 -0.021748 -0.005176
												CHANNELS 3 Xrotation Yrotation Zrotation
												End Site
												{
													OFFSET 0.016125 -0.013029 -0.001569
												}
											}
										}
									}
								}
								JOINT palm.02.L
								{
									OFFSET 0.032823 -0.025104 0.012281
									CHANNELS 6 Xposition Yposition Zposition Yrotation Xrotation Zrotation
									JOINT f_middle.01.L
									{
										OFFSET 0.055723 -0.038469 0.008037
										CHANNELS 3 Xrotation Yrotation Zrotation
										JOINT f_middle.02.L
										{
											OFFSET 0.038167 -0.027473 -0.015582
											CHANNELS 3 Xrotation Yrotation Zrotation
											JOINT f_middle.03.L
											{
												OFFSET 0.021707 -0.016587 -0.017037
												CHANNELS 3 Xrotation Yrotation Zrotation
												End Site
												{
													OFFSET 0.014112 -0.010584 -0.014294
												}
											}
										}
									}
								}
								JOINT palm.03.L
								{
									OFFSET 0.039230 -0.011402 0.008390
									CHANNELS 6 Xposition Yposition Zposition Yrotation Xrotation Zrotation
									JOINT f_ring.01.L
									{
										OFFSET 0.061796 -0.031470 0.007910
										CHANNELS 3 Xrotation Yrotation Zrotation
										JOINT f_ring.02.L
										{
											OFFSET 0.033092 -0.023401 -0.019127
											CHANNELS 3 Xrotation Yrotation Zrotation
											JOINT f_ring.03.L
											{
												OFFSET 0.021392 -0.015362 -0.017824
												CHANNELS 3 Xrotation Yrotation Zrotation
												End Site
												{
													OFFSET 0.008670 -0.007297 -0.014686
												}
											}
										}
									}
								}
								JOINT palm.04.L
								{
									OFFSET 0.043417 0.002450 0.002889
									CHANNELS 6 Xposition Yposition Zposition Yrotation Xrotation Zrotation
									JOINT f_pinky.01.L
									{
										OFFSET 0.069986 -0.026156 0.003627
										CHANNELS 3 Xrotation Yrotation Zrotation
										JOINT f_pinky.02.L
										{
											OFFSET 0.018520 -0.012813 -0.016429
											CHANNELS 3 Xrotation Yrotation Zrotation
											JOINT f_pinky.03.L
											{
												OFFSET 0.013822 -0.009796 -0.014947
												CHANNELS 3 Xrotation Yrotation Zrotation
												End Site
												{
													OFFSET 0.007238 -0.006103 -0.011657
												}
											}
										}
									}
								}
							}
						}
					}
				}
				JOINT shoulder.R
				{
					OFFSET -0.016662 0.078957 0.057696
					CHANNELS 6 Xposition Yposition Zposition Yrotation Xrotation Zrotation
					JOINT upper_arm.R
					{
						OFFSET -0.176972 -0.020537 -0.095144
						CHANNELS 6 Xposition Yposition Zposition Xrotation Yrotation Zrotation
						JOINT forearm.R
						{
							OFFSET -0.247100 -0.135500 -0.061800
							CHANNELS 3 Xrotation Yrotation Zrotation
							JOINT hand.R
							{
								OFFSET -0.217000 -0.143000 0.039300
								CHANNELS 3 Xrotation Yrotation Zrotation
								JOINT palm.01.R
								{
									OFFSET -0.021773 -0.038278 0.012988
									CHANNELS 6 Xposition Yposition Zposition Yrotation Xrotation Zrotation
									JOINT f_index.01.R
									{
										OFFSET -0.053212 -0.044139 0.008249
										CHANNELS 3 Xrotation Yrotation Zrotation
										JOINT f_index.02.R
										{
											OFFSET -0.036049 -0.024835 -0.010634
											CHANNELS 3 Xrotation Yrotation Zrotation
											JOINT f_index.03.R
											{
												OFFSET -0.021371 -0.014881 -0.010866
												CHANNELS 3 Xrotation Yrotation Zrotation
												End Site
												{
													OFFSET -0.015584 -0.009883 -0.013422
												}
											}
										}
									}
									JOINT thumb.01.R
									{
										OFFSET 0.009113 -0.002381 -0.024211
										CHANNELS 6 Xposition Yposition Zposition Xrotation Yrotation Zrotation
										JOINT thumb.02.R
										{
											OFFSET -0.019694 -0.035097 -0.011088
											CHANNELS 3 Xrotation Yrotation Zrotation
											JOINT thumb.03.R
											{
												OFFSET -0.024867 -0.021762 -0.005168
												CHANNELS 3 Xrotation Yrotation Zrotation
												End Site
												{
													OFFSET -0.016120 -0.013036 -0.001565
												}
											}
										}
									}
								}
								JOINT palm.02.R
								{
									OFFSET -0.032828 -0.025095 0.012286
									CHANNELS 6 Xposition Yposition Zposition Yrotation Xrotation Zrotation
									JOINT f_middle.01.R
									{
										OFFSET -0.055721 -0.038472 0.008040
										CHANNELS 3 Xrotation Yrotation Zrotation
										JOINT f_middle.02.R
										{
											OFFSET -0.038101 -0.027593 -0.015557
											CHANNELS 3 Xrotation Yrotation Zrotation
											JOINT f_middle.03.R
											{
												OFFSET -0.021730 -0.016530 -0.017054
												CHANNELS 3 Xrotation Yrotation Zrotation
												End Site
												{
													OFFSET -0.014096 -0.010608 -0.014293
												}
											}
										}
									}
								}
								JOINT palm.03.R
								{
									OFFSET -0.039192 -0.011488 0.008390
									CHANNELS 6 Xposition Yposition Zposition Yrotation Xrotation Zrotation
									JOINT f_ring.01.R
									{
										OFFSET -0.061839 -0.031387 0.007876
										CHANNELS 3 Xrotation Yrotation Zrotation
										JOINT f_ring.02.R
										{
											OFFSET -0.033068 -0.023437 -0.019125
											CHANNELS 3 Xrotation Yrotation Zrotation
											JOINT f_ring.03.R
											{
												OFFSET -0.021371 -0.015393 -0.017822
												CHANNELS 3 Xrotation Yrotation Zrotation
												End Site
												{
													OFFSET -0.008654 -0.007321 -0.014684
												}
											}
										}
									}
								}
								JOINT palm.04.R
								{
									OFFSET -0.043421 0.002443 0.002845
									CHANNELS 6 Xposition Yposition Zposition Yrotation Xrotation Zrotation
									JOINT f_pinky.01.R
									{
										OFFSET -0.069983 -0.026169 0.003599
										CHANNELS 3 Xrotation Yrotation Zrotation
										JOINT f_pinky.02.R
										{
											OFFSET -0.018501 -0.012842 -0.016428
											CHANNELS 3 Xrotation Yrotation Zrotation
											JOINT f_pinky.03.R
											{
												OFFSET -0.013806 -0.009821 -0.014946
												CHANNELS 3 Xrotation Yrotation Zrotation
												End Site
												{
													OFFSET -0.007226 -0.006121 -0.011655
												}
											}
										}
									}
								}
							}
						}
					}
				}
			}
		}
	}
	JOINT pelvis.L
	{
		OFFSET 0.000000 0.000000 0.000000
		CHANNELS 6 Xposition Yposition Zposition Xrotation Yrotation Zrotation
		JOINT thigh.L
		{
			OFFSET 0.101675 0.001054 -0.000000
			CHANNELS 3 Xrotation Yrotation Zrotation
			JOINT shin.L
			{
				OFFSET 0.000000 -0.534800 0.041000
				CHANNELS 3 Xrotation Yrotation Zrotation
				JOINT foot.L
				{
					OFFSET 0.000000 -0.452000 -0.044800
					CHANNELS 3 Xrotation Yrotation Zrotation
					JOINT toe.L
					{
						OFFSET -0.000000 -0.068500 0.109600
						CHANNELS 3 Xrotation Yrotation Zrotation
						End Site
						{
							OFFSET -0.000000 0.000000 0.067200
						}
					}
				}
				JOINT heel.L
				{
					OFFSET 0.000000 -0.452000 -0.044800
					CHANNELS 3 Xrotation Yrotation Zrotation
					JOINT heel.02.L
					{
						OFFSET -0.038000 -0.085200 0.016200
						CHANNELS 6 Xposition Yposition Zposition Xrotation Yrotation Zrotation
						End Site
						{
							OFFSET 0.080000 -0.000000 0.000000
						}
					}
				}
			}
		}
	}
	JOINT pelvis.R
	{
		OFFSET 0.000000 0.000000 0.000000
		CHANNELS 6 Xposition Yposition Zposition Xrotation Yrotation Zrotation
		JOINT thigh.R
		{
			OFFSET -0.094325 0.001054 0.000000
			CHANNELS 3 Xrotation Yrotation Zrotation
			JOINT shin.R
			{
				OFFSET 0.000000 -0.534800 0.041000
				CHANNELS 3 Xrotation Yrotation Zrotation
				JOINT foot.R
				{
					OFFSET 0.000000 -0.452000 -0.044800
					CHANNELS 3 Xrotation Yrotation Zrotation
					JOINT toe.R
					{
						OFFSET -0.000000 -0.068500 0.109600
						CHANNELS 3 Xrotation Yrotation Zrotation
						End Site
						{
							OFFSET -0.000000 0.000000 0.067200
						}
					}
				}
				JOINT heel.R
				{
					OFFSET 0.000000 -0.452000 -0.044800
					CHANNELS 3 Xrotation Yrotation Zrotation
					JOINT heel.02.R
					{
						OFFSET 0.038000 -0.085200 0.016200
						CHANNELS 6 Xposition Yposition Zposition Xrotation Yrotation Zrotation
						End Site
						{
							OFFSET -0.080000 0.000000 -0.000000
						}
					}
				}
			}
		}
	}
}
MOTION
Frames: 4
Frame Time: 0.041667
0.008489 0.279475 -0.056361 -2.237595 0.015540 -0.003096 -0.000000 0.000000 -0.000000 -0.000000 0.000000 0.000000 -0.000001 0.000000 0.000000 -0.000000 -0.000000 0.000000 0.000924 0.155148 0.009274 8.718177 -0.017431 14.482182 0.019937 0.078966 0.057518 -21.930363 4.256739 25.381048 0.177024 -0.020465 -0.095062 -19.918677 18.524358 -87.450423 -13.214614 -11.723939 -68.878892 -88.705893 44.037822 26.532252 0.021770 -0.038291 0.012954 -0.000003 0.000003 0.000001 -0.000002 0.000000 0.000001 0.000002 -0.000001 0.000001 0.000000 0.000005 0.000003 -0.009090 -0.002348 -0.024224 0.000003 -0.000001 0.000005 -0.000002 -0.000002 -0.000004 -0.000003 0.000003 0.000003 0.032823 -0.025104 0.012281 0.000000 -0.000003 -0.000002 -0.000001 0.000000 0.000001 -0.000000 0.000005 0.000001 -0.000002 -0.000000 -0.000002 0.039230 -0.011402 0.008390 -0.000001 -0.000000 0.000001 0.000001 -0.000001 -0.000005 -0.000000 -0.000003 0.000003 0.000001 0.000000 0.000001 0.043417 0.002450 0.002889 -0.000002 0.000001 -0.000000 -0.000002 0.000000 0.000000 0.000003 -0.000002 -0.000001 -0.000000 -0.000001 -0.000002 -0.016662 0.078957 0.057696 -22.064894 8.349681 -22.170668 -0.176972 -0.020537 -0.095144 -8.602873 -6.066421 56.488547 -66.116607 -34.383623 85.869452 -62.509242 -38.570686 -8.320901 -0.021773 -0.038278 0.012988 0.000001 0.000003 0.000005 -0.000002 0.000003 -0.000001 -0.000000 0.000002 -0.000002 -0.000000 0.000000 -0.000005 0.009114 -0.002381 -0.024212 -0.000000 0.000005 0.000001 -0.000004 0.000001 -0.000005 -0.000004 0.000000 0.000001 -0.032828 -0.025095 0.012286 -0.000001 0.000002 0.000002 -0.000003 -0.000000 0.000003 -0.000001 -0.000004 -0.000000 0.000003 0.000000 -0.000001 -0.039192 -0.011488 0.008390 0.000002 0.000002 -0.000001 0.000002 -0.000006 0.000003 0.000001 -0.000002 -0.000002 0.000003 -0.000003 0.000003 -0.043421 0.002443 0.002844 0.000000 0.000004 0.000000 -0.000005 -0.000001 0.000000 -0.000003 0.000002 -0.000000 -0.000002 0.000001 0.000001 -0.000000 0.000000 0.000000 -0.864867 -6.837889 6.534796 -20.210093 -0.580097 -6.289832 12.659570 -0.070532 0.712306 -0.000003 -0.000001 0.000000 0.000001 -0.000001 0.000000 0.000002 -0.000001 0.000001 -0.038000 -0.085200 0.016200 0.000001 -0.000000 -0.000000 0.000000 -0.000000 0.000000 -0.944241 0.486530 -6.878199 -32.090527 -0.579181 -10.597153 30.396268 -2.317297 24.097298 0.000000 -0.000000 0.000001 0.000000 -0.000000 0.000002 0.000000 0.000000 0.000000 0.038000 -0.085200 0.016200 0.000002 -0.000000 0.000001 
0.009372 0.283584 -0.055436 -2.338335 -0.305079 0.122670 -0.000000 -0.000000 -0.000000 -0.000000 -0.000000 0.000000 -0.000000 -0.000000 0.000000 0.000000 -0.000000 0.000000 0.000924 0.155148 0.009274 8.854189 -0.017554 14.323801 0.019937 0.078966 0.057518 -22.146919 3.898406 25.000789 0.177025 -0.020465 -0.095062 -19.932077 18.604814 -87.599922 -12.209488 -11.843258 -67.991453 -88.705887 44.037826 26.532244 0.021770 -0.038291 0.012954 -0.000001 0.000002 0.000001 0.000002 -0.000001 -0.000001 0.000002 0.000003 0.000001 0.000000 0.000003 -0.000002 -0.009090 -0.002348 -0.024223 -0.000002 -0.000000 0.000003 -0.000001 0.000001 -0.000004 0.000001 0.000001 0.000004 0.032823 -0.025104 0.012281 0.000000 -0.000002 -0.000001 -0.000003 0.000000 0.000001 -0.000003 0.000006 -0.000002 -0.000001 0.000003 -0.000002 0.039230 -0.011402 0.008390 0.000000 0.000001 0.000004 0.000000 0.000000 -0.000003 -0.000004 -0.000005 0.000003 0.000001 -0.000004 0.000003 0.043417 0.002450 0.002889 -0.000002 0.000004 0.000001 0.000001 0.000002 0.000000 0.000001 0.000000 0.000002 0.000001 -0.000004 -0.000001 -0.016662 0.078957 0.057696 -22.175893 8.116798 -21.833246 -0.176972 -0.020537 -0.095144 -7.588775 -6.240333 56.679208 -66.651786 -33.928070 85.278067 -62.509242 -38.570686 -8.320901 -0.021773 -0.038278 0.012988 0.000001 0.000001 -0.000002 0.000004 0.000001 0.000001 0.000002 -0.000003 -0.000003 0.000000 0.000001 0.000004 0.009114 -0.002381 -0.024212 0.000000 0.000000 0.000004 -0.000004 0.000006 0.000002 0.000001 0.000004 -0.000001 -0.032828 -0.025095 0.012286 0.000001 0.000002 -0.000004 -0.000001 0.000003 0.000003 -0.000003 -0.000003 -0.000004 0.000006 0.000000 -0.000001 -0.039192 -0.011488 0.008390 0.000001 0.000001 -0.000007 -0.000001 0.000001 -0.000001 -0.000001 -0.000003 0.000002 0.000001 -0.000001 0.000003 -0.043421 0.002443 0.002844 0.000000 0.000001 -0.000003 0.000001 -0.000004 -0.000001 -0.000002 0.000001 0.000002 -0.000000 -0.000002 -0.000003 -0.000000 0.000000 -0.000000 -0.910792 -6.053007 4.616690 -19.995259 -0.469113 -4.868430 12.642432 -0.115302 1.164031 -0.000003 0.000001 0.000000 0.000001 0.000000 0.000000 0.000003 -0.000000 -0.000000 -0.038000 -0.085200 0.016200 -0.000002 0.000001 0.000000 -0.000000 -0.000000 -0.000000 -0.979734 0.392099 -5.469700 -32.556879 -0.696547 -12.208937 31.069929 -2.299351 23.898801 0.000002 -0.000000 -0.000001 -0.000001 0.000000 -0.000000 0.000000 0.000000 0.000000 0.038000 -0.085200 0.016200 -0.000001 0.000000 0.000000 
0.002743 0.289159 -0.051605 -2.760088 -1.719197 -0.580146 -0.000000 0.000000 -0.000000 -0.000000 -0.000000 0.000000 -0.000000 -0.000000 -0.000000 0.000000 0.000000 -0.000000 0.000924 0.155148 0.009274 9.623347 -0.019118 14.708858 0.019937 0.078966 0.057518 -21.005002 3.614438 25.011635 0.177025 -0.020465 -0.095062 -19.500224 18.188230 -87.555785 -11.446800 -11.943020 -67.381175 -88.705893 44.037826 26.532249 0.021770 -0.038291 0.012954 -0.000001 0.000002 -0.000004 0.000001 0.000000 -0.000001 0.000001 0.000000 0.000001 -0.000004 -0.000000 0.000002 -0.009090 -0.002348 -0.024224 -0.000000 -0.000001 0.000003 0.000006 -0.000002 -0.000002 0.000000 0.000003 0.000004 0.032823 -0.025104 0.012281 -0.000001 -0.000002 0.000001 -0.000003 -0.000002 0.000001 -0.000001 0.000006 -0.000002 -0.000000 -0.000001 -0.000000 0.039230 -0.011402 0.008390 -0.000002 0.000001 -0.000003 -0.000004 0.000005 -0.000002 0.000002 -0.000003 0.000003 -0.000003 -0.000009 0.000001 0.043417 0.002450 0.002889 -0.000003 0.000004 -0.000002 0.000001 -0.000001 0.000000 -0.000002 0.000000 0.000000 -0.000004 -0.000000 -0.000003 -0.016662 0.078957 0.057696 -21.505506 7.563530 -21.262766 -0.176972 -0.020537 -0.095144 -6.003626 -6.665355 57.053796 -66.491195 -32.603116 84.920500 -62.509236 -38.570686 -8.320902 -0.021773 -0.038278 0.012988 0.000002 0.000001 0.000000 -0.000001 -0.000000 -0.000003 0.000002 -0.000001 0.000003 -0.000004 0.000001 0.000003 0.009113 -0.002381 -0.024212 0.000001 0.000000 -0.000003 0.000003 -0.000000 -0.000000 -0.000002 0.000001 0.000004 -0.032828 -0.025095 0.012286 0.000001 0.000001 -0.000001 0.000001 0.000003 -0.000004 0.000005 0.000002 -0.000005 0.000004 0.000004 0.000001 -0.039192 -0.011488 0.008390 0.000002 0.000001 -0.000002 -0.000002 -0.000002 0.000001 0.000001 -0.000002 0.000000 -0.000004 -0.000004 0.000004 -0.043421 0.002442 0.002845 0.000001 -0.000000 -0.000002 0.000002 -0.000002 -0.000001 0.000001 0.000003 -0.000002 0.000001 0.000006 -0.000002 -0.000000 0.000000 -0.000000 -1.013407 -2.556791 2.724354 -19.332118 -0.364209 -3.389458 12.561865 -0.228684 2.308598 0.000000 0.000001 -0.000000 0.000003 -0.000001 0.000000 -0.000002 -0.000000 -0.000000 -0.038000 -0.085200 0.016200 0.000003 -0.000000 0.000000 0.000000 0.000000 -0.000000 -1.029744 0.219799 -2.959563 -32.932143 -0.777634 -13.186025 31.903305 -2.201233 22.818737 0.000002 -0.000001 -0.000001 -0.000001 -0.000002 0.000001 0.000003 -0.000000 -0.000001 0.038000 -0.085200 0.016200 -0.000001 0.000000 0.000000 
0.012172 0.283327 -0.055275 -2.372210 -0.375770 0.512542 -0.000000 -0.000000 0.000000 -0.000001 0.000000 0.000000 -0.000000 0.000000 0.000000 0.000000 0.000000 -0.000000 0.000924 0.155147 0.009274 8.820797 -0.016618 13.696963 0.019937 0.078966 0.057518 -23.397264 3.839229 24.663769 0.177025 -0.020465 -0.095062 -20.459750 19.066651 -87.992856 -11.289951 -11.990521 -66.863167 -88.705893 44.037826 26.532249 0.021770 -0.038291 0.012954 0.000001 0.000001 0.000004 -0.000001 -0.000001 -0.000003 -0.000002 -0.000001 -0.000005 -0.000002 0.000000 0.000003 -0.009090 -0.002348 -0.024223 0.000002 0.000000 -0.000000 0.000003 -0.000003 -0.000007 -0.000001 0.000002 0.000004 0.032823 -0.025104 0.012281 0.000001 -0.000000 0.000001 -0.000004 0.000000 0.000004 0.000004 0.000006 -0.000004 0.000002 -0.000003 0.000003 0.039230 -0.011402 0.008390 -0.000000 -0.000002 0.000002 0.000001 0.000000 -0.000007 -0.000006 -0.000007 0.000007 -0.000000 -0.000005 -0.000003 0.043417 0.002450 0.002889 -0.000002 0.000004 0.000001 -0.000003 -0.000001 0.000000 0.000001 0.000003 -0.000001 -0.000006 -0.000008 0.000002 -0.016662 0.078957 0.057696 -22.692498 8.224938 -21.636972 -0.176972 -0.020537 -0.095144 -6.443392 -6.332296 57.508909 -68.037126 -33.491296 84.136189 -62.509242 -38.570686 -8.320903 -0.021773 -0.038278 0.012988 0.000000 0.000003 0.000000 0.000002 0.000002 -0.000001 0.000001 0.000000 -0.000006 -0.000000 0.000007 -0.000003 0.009113 -0.002381 -0.024211 0.000003 0.000001 0.000004 -0.000002 0.000003 -0.000002 -0.000004 -0.000001 -0.000002 -0.032828 -0.025095 0.012286 0.000001 -0.000001 -0.000001 -0.000003 0.000003 0.000001 0.000002 -0.000002 -0.000000 0.000001 0.000005 -0.000003 -0.039192 -0.011488 0.008390 0.000001 0.000003 -0.000002 0.000000 -0.000003 0.000004 -0.000002 0.000002 -0.000003 0.000001 0.000002 -0.000002 -0.043421 0.002443 0.002845 0.000000 0.000002 -0.000002 -0.000002 -0.000003 -0.000003 -0.000002 -0.000005 0.000004 0.000002 0.000002 -0.000002 -0.000000 0.000000 0.000000 -0.900093 -6.052348 4.472746 -20.022840 -0.478480 -5.059878 12.645353 -0.108959 1.099972 0.000000 -0.000000 -0.000000 0.000001 -0.000001 -0.000000 0.000002 -0.000001 -0.000000 -0.038000 -0.085200 0.016200 -0.000000 -0.000001 0.000000 -0.000000 -0.000000 0.000000 -0.967981 0.417347 -5.848282 -32.665772 -0.755749 -13.058357 30.973306 -2.377032 24.760329 0.000000 -0.000000 0.000000 -0.000001 0.000000 -0.000001 -0.000002 0.000000 0.000000 0.038000 -0.085200 0.016200 -0.000003 -0.000000 0.000002 
